<?xml version="1.0" encoding="utf-8" ?>
<svg baseProfile="tiny" height="100%" version="1.2" width="100%" xmlns="http://www.w3.org/2000/svg" xmlns:ev="http://www.w3.org/2001/xml-events" xmlns:xlink="http://www.w3.org/1999/xlink"><defs /><polyline fill="none" points="179,753 181,753" stroke="black" stroke-width="2" /><polyline fill="none" points="175,753 176,753" stroke="black" stroke-width="2" /><polyline fill="none" points="321,730 321,731" stroke="black" stroke-width="2" /><polyline fill="none" points="960,719 960,723" stroke="black" stroke-width="2" /><polyline fill="none" points="960,712 960,717" stroke="black" stroke-width="2" /><polyline fill="none" points="232,711 235,711" stroke="black" stroke-width="2" /><polyline fill="none" points="892,650 891,651 890,651 887,654 887,728 888,729 888,763 891,766 893,766 894,767 896,767 897,766 898,766 901,763 901,683 900,682 900,655 899,654 899,653 897,651 896,651 895,650" stroke="black" stroke-width="2" /><polyline fill="none" points="554,600 559,600" stroke="black" stroke-width="2" /><polyline fill="none" points="540,600 541,600" stroke="black" stroke-width="2" /><polyline fill="none" points="534,600 536,600" stroke="black" stroke-width="2" /><polyline fill="none" points="486,600 487,600" stroke="black" stroke-width="2" /><polyline fill="none" points="468,600 469,600" stroke="black" stroke-width="2" /><polyline fill="none" points="425,600 429,600" stroke="black" stroke-width="2" /><polyline fill="none" points="659,518 658,519 654,519 653,520 652,520 651,521 651,526 652,527 652,528 654,530 654,531 655,532 656,532 657,533 746,533 748,531 748,523 744,519 742,519 741,518" stroke="black" stroke-width="2" /><polyline fill="none" points="768,473 768,486" stroke="black" stroke-width="2" /><polyline fill="none" points="818,372 817,373 811,373 810,374 807,374 806,375 803,375 802,376 800,376 799,377 798,377 797,378 795,378 794,379 793,379 792,380 791,380 789,382 788,382 786,384 785,384 774,395 774,396 772,398 772,399 770,401 770,402 769,403 769,405 768,406 768,407 767,408 767,410 766,411 766,413 765,414 765,416 764,417 764,419 763,420 763,423 762,424 762,426 761,427 761,430 760,431 760,433 759,434 759,436 758,437 758,438 751,445 750,445 747,448 746,448 743,451 743,452 742,453 742,454 741,455 741,462 742,463 742,464 743,465 743,466 745,468 745,469 749,473 750,473 752,475 752,483 753,484 753,500 754,501 754,504 755,505 755,507 756,508 756,509 758,511 758,512 764,518 765,518 767,520 768,520 769,521 771,521 772,522 773,522 774,523 776,523 777,524 779,524 780,525 783,525 787,529 787,530 788,531 788,533 789,534 789,538 788,539 788,540 785,543 784,543 783,544 782,544 781,545 780,545 779,546 778,546 777,547 776,547 775,548 773,548 772,549 771,549 770,550 769,550 768,551 767,551 766,552 765,552 764,553 763,553 761,555 760,555 759,556 758,556 757,557 756,557 754,559 753,559 752,560 751,560 750,561 749,561 747,563 746,563 745,564 744,564 742,566 741,566 740,567 739,567 738,568 737,568 735,570 734,570 733,571 732,571 730,573 729,573 728,574 727,574 725,576 724,576 723,577 722,577 720,579 719,579 718,580 717,580 715,582 714,582 713,583 712,583 710,585 709,585 708,586 707,586 706,587 705,587 703,589 702,589 701,590 700,590 698,592 697,592 696,593 695,593 693,595 692,595 691,596 690,596 689,597 688,597 687,598 684,595 684,594 681,591 681,590 678,587 678,586 676,584 676,583 673,580 673,579 671,577 671,576 668,573 668,572 666,570 666,569 664,567 664,566 662,564 662,563 659,560 659,559 657,557 657,556 655,554 655,553 653,551 653,550 651,548 651,547 649,545 649,544 647,542 647,541 645,539 645,538 643,536 643,535 642,534 642,533 640,531 640,530 638,528 638,527 637,526 637,525 635,523 635,522 634,521 634,520 633,519 633,518 631,516 631,515 629,513 629,512 628,511 628,510 626,508 626,507 625,506 625,505 623,503 623,502 622,501 622,500 620,498 620,497 618,495 618,494 616,492 616,491 614,489 614,488 612,486 612,485 609,482 609,481 606,478 606,477 603,474 603,473 594,464 594,463 591,460 590,460 582,452 581,452 578,449 577,449 574,446 573,446 572,445 571,445 569,443 567,443 566,442 565,442 564,441 561,441 560,440 558,440 557,441 554,441 553,442 552,442 550,444 549,444 548,445 548,446 546,448 546,450 545,451 545,459 546,460 546,461 547,462 547,463 549,465 549,466 551,468 551,469 555,473 555,474 561,480 561,481 566,486 560,492 560,493 557,496 557,497 556,498 556,499 555,500 555,501 554,502 554,504 553,505 553,508 552,509 552,520 553,521 553,524 554,525 554,527 555,528 555,529 556,530 556,531 557,532 557,533 559,535 559,536 568,545 569,545 571,547 572,547 573,548 574,548 575,549 576,549 577,550 578,550 579,551 580,551 581,552 582,552 583,553 584,553 589,558 589,559 591,561 591,562 593,564 593,565 595,567 595,568 596,569 596,570 598,572 598,573 599,574 599,575 600,576 600,577 602,579 602,580 603,581 603,582 605,584 605,585 606,586 606,587 607,588 607,589 608,590 608,591 610,593 610,594 611,595 611,596 612,597 612,598 614,600 614,601 615,602 615,603 616,604 616,605 617,606 617,607 619,609 619,610 620,611 620,612 621,613 621,614 622,615 622,616 624,618 624,619 625,620 625,621 626,622 626,623 628,625 628,626 630,628 630,629 631,630 631,631 633,633 633,634 634,635 634,636 636,638 636,639 637,640 637,641 639,643 639,644 641,646 641,647 644,650 644,651 648,655 648,656 650,658 651,658 655,662 656,662 658,664 659,664 660,665 661,665 662,666 663,666 664,667 666,667 667,668 670,668 671,669 686,669 687,668 692,668 693,667 697,667 698,666 701,666 702,665 705,665 706,664 709,664 710,663 713,663 714,662 717,662 718,661 720,661 721,660 724,660 725,659 728,659 729,658 731,658 732,657 735,657 736,656 737,656 738,657 738,667 739,668 739,728 740,729 740,762 741,763 741,764 743,766 745,766 746,767 747,767 748,766 750,766 753,763 753,760 754,759 754,755 753,754 753,690 752,689 752,648 751,647 751,646 748,643 747,643 746,642 745,642 744,641 740,641 739,642 736,642 735,643 732,643 731,644 729,644 728,645 725,645 724,646 721,646 720,647 717,647 716,648 713,648 712,649 709,649 708,650 705,650 704,651 701,651 700,652 697,652 696,653 692,653 691,654 687,654 686,655 680,655 679,656 675,656 674,655 671,655 670,654 668,654 667,653 666,653 665,652 664,652 654,642 654,641 651,638 651,637 649,635 649,634 647,632 647,631 645,629 645,628 644,627 644,626 642,624 642,623 641,622 641,621 639,619 639,618 638,617 638,616 636,614 636,613 635,612 635,611 634,610 634,609 632,607 632,606 631,605 631,604 630,603 630,602 628,600 628,599 627,598 627,597 626,596 626,595 624,593 624,592 623,591 623,590 622,589 622,588 621,587 621,586 619,584 619,583 618,582 618,581 617,580 617,579 616,578 616,577 614,575 614,574 613,573 613,572 612,571 612,570 610,568 610,567 609,566 609,565 608,564 608,563 606,561 606,560 605,559 605,558 603,556 603,555 601,553 601,552 599,550 599,549 592,542 591,542 590,541 589,541 588,540 587,540 586,539 585,539 584,538 583,538 582,537 581,537 579,535 578,535 576,533 575,533 570,528 570,527 568,525 568,524 567,523 567,522 566,521 566,509 567,508 567,506 568,505 568,504 569,503 569,502 578,493 579,493 581,491 582,491 583,490 583,489 584,488 584,485 582,483 582,482 581,481 580,481 570,471 570,470 564,464 564,463 562,461 562,460 560,458 560,457 559,456 559,455 560,454 562,454 563,455 564,455 566,457 567,457 570,460 571,460 575,464 576,464 591,479 591,480 595,484 595,485 598,488 598,489 601,492 601,493 603,495 603,496 605,498 605,499 607,501 607,502 609,504 609,505 610,506 610,507 612,509 612,510 614,512 614,513 615,514 615,515 617,517 617,518 618,519 618,520 620,522 620,523 621,524 621,525 623,527 623,528 624,529 624,530 626,532 626,533 628,535 628,536 629,537 629,538 631,540 631,541 633,543 633,544 634,545 634,546 636,548 636,549 638,551 638,552 640,554 640,555 641,556 641,557 644,560 644,561 645,562 645,563 647,565 647,566 650,569 650,570 652,572 652,573 654,575 654,576 656,578 656,579 658,581 658,582 660,584 660,585 662,587 662,588 665,591 665,592 667,594 667,595 669,597 669,598 672,601 672,602 674,604 674,605 679,610 681,610 682,611 690,611 691,610 693,610 694,609 695,609 696,608 697,608 698,607 699,607 700,606 701,606 702,605 703,605 704,604 705,604 707,602 708,602 709,601 710,601 711,600 712,600 714,598 715,598 716,597 717,597 719,595 720,595 721,594 722,594 724,592 725,592 726,591 727,591 729,589 730,589 731,588 732,588 733,587 734,587 736,585 737,585 738,584 739,584 741,582 742,582 743,581 744,581 746,579 747,579 748,578 749,578 750,577 751,577 753,575 754,575 755,574 756,574 758,572 759,572 760,571 761,571 763,569 764,569 765,568 766,568 767,567 768,567 769,566 770,566 772,564 773,564 774,563 775,563 776,562 777,562 778,561 779,561 780,560 781,560 782,559 783,559 784,558 785,558 786,557 787,557 788,556 789,556 790,555 791,555 792,554 793,554 799,548 799,547 800,546 800,545 801,544 801,541 802,540 802,532 801,531 801,528 800,527 800,525 799,524 799,523 798,522 798,521 792,515 791,515 790,514 789,514 788,513 786,513 785,512 783,512 782,511 780,511 779,510 777,510 776,509 775,509 774,508 773,508 768,503 768,502 767,501 767,499 766,498 766,473 765,472 765,470 764,469 764,468 758,462 757,462 754,459 758,455 759,455 762,452 763,452 768,447 768,446 770,444 770,443 771,442 771,440 772,439 772,437 773,436 773,433 774,432 774,429 775,428 775,425 776,424 776,422 777,421 777,418 778,417 778,415 779,414 779,413 780,412 780,411 781,410 781,409 783,407 783,406 786,403 786,402 791,397 792,397 795,394 796,394 798,392 799,392 800,391 801,391 802,390 803,390 804,389 806,389 807,388 809,388 810,387 813,387 814,386 820,386 821,385 829,385 830,386 836,386 837,387 840,387 841,388 843,388 844,389 846,389 847,390 848,390 849,391 850,391 852,393 853,393 855,395 856,395 865,404 865,405 867,407 867,408 869,410 869,411 870,412 870,413 871,414 871,416 872,417 872,418 873,419 873,421 874,422 874,425 875,426 875,431 876,432 876,444 875,445 875,450 874,451 874,454 873,455 873,457 872,458 872,459 871,460 871,462 870,463 870,464 869,465 869,466 868,467 868,468 866,470 866,471 864,473 864,474 863,475 863,476 861,478 861,479 859,481 859,482 858,483 858,484 856,486 856,487 855,488 855,490 854,491 854,492 853,493 853,495 852,496 852,498 851,499 851,502 850,503 850,510 849,511 849,515 850,516 850,523 851,524 851,527 852,528 852,530 853,531 853,532 854,533 854,534 855,535 855,536 856,537 856,538 859,541 859,542 865,548 866,548 870,552 871,552 873,554 874,554 876,556 877,556 878,557 879,557 881,559 882,559 883,560 884,560 885,561 886,561 888,563 889,563 890,564 891,564 893,566 894,566 896,568 897,568 898,569 899,569 901,571 902,571 905,574 906,574 909,577 910,577 923,590 923,591 925,593 925,594 927,596 927,597 929,599 929,600 930,601 930,602 931,603 931,604 932,605 932,606 933,607 933,608 934,609 934,610 935,611 935,613 936,614 936,616 937,617 937,619 938,620 938,623 939,624 939,627 940,628 940,633 941,634 941,641 942,642 942,653 943,654 943,674 944,675 944,750 943,751 943,760 944,761 944,763 947,766 948,766 949,767 951,767 952,766 954,766 956,764 956,763 957,762 957,734 958,733 958,686 957,685 957,659 956,658 956,645 955,644 955,636 954,635 954,630 953,629 953,624 952,623 952,620 951,619 951,616 950,615 950,613 949,612 949,610 948,609 948,607 947,606 947,604 946,603 946,602 945,601 945,600 944,599 944,598 943,597 943,596 942,595 942,594 941,593 941,592 939,590 939,589 937,587 937,586 934,583 934,582 918,566 917,566 914,563 913,563 911,561 910,561 908,559 907,559 905,557 904,557 902,555 901,555 899,553 898,553 897,552 896,552 894,550 893,550 892,549 891,549 890,548 889,548 887,546 886,546 885,545 884,545 882,543 881,543 880,542 879,542 876,539 875,539 872,536 872,535 868,531 868,530 867,529 867,528 866,527 866,526 865,525 865,522 864,521 864,516 863,515 863,510 864,509 864,504 865,503 865,500 866,499 866,497 867,496 867,495 868,494 868,493 869,492 869,491 870,490 870,489 871,488 871,487 873,485 873,484 875,482 875,481 876,480 876,479 878,477 878,476 879,475 879,474 881,472 881,471 882,470 882,469 883,468 883,466 884,465 884,464 885,463 885,461 886,460 886,458 887,457 887,455 888,454 888,450 889,449 889,442 890,441 890,432 889,431 889,424 888,423 888,420 887,419 887,417 886,416 886,414 885,413 885,411 884,410 884,409 883,408 883,407 882,406 882,405 881,404 881,403 879,401 879,400 877,398 877,397 874,394 874,393 868,387 867,387 864,384 863,384 861,382 860,382 858,380 857,380 856,379 855,379 854,378 853,378 852,377 850,377 849,376 848,376 847,375 844,375 843,374 840,374 839,373 834,373 833,372" stroke="black" stroke-width="2" /><polyline fill="none" points="916,350 915,351 915,352 914,353 914,504 913,505 913,506 912,507 912,508 911,509 911,510 905,516 904,516 903,517 902,517 901,518 898,518 897,519 893,519 892,520 891,520 889,522 889,523 888,524 888,529 889,530 889,531 890,531 892,533 903,533 904,532 906,532 907,531 908,531 909,530 910,530 911,529 912,529 913,528 914,528 923,519 923,518 925,516 925,515 926,514 926,512 927,511 927,510 928,509 928,506 929,505 929,351 928,351 927,350" stroke="black" stroke-width="2" /><polyline fill="none" points="847,337 847,338" stroke="black" stroke-width="2" /><polyline fill="none" points="203,337 202,338 197,338 196,339 194,339 193,340 190,340 189,341 188,341 187,342 185,342 184,343 183,343 182,344 181,344 180,345 179,345 177,347 176,347 174,349 173,349 170,352 169,352 162,359 162,360 158,364 158,365 156,367 156,368 155,369 155,370 154,371 154,372 152,374 152,376 151,377 151,378 150,379 150,381 149,382 149,383 148,384 148,387 147,388 147,391 146,392 146,396 145,397 145,424 146,425 146,430 147,431 147,435 148,436 148,438 149,439 149,441 150,442 150,444 151,445 151,446 152,447 152,449 153,450 153,451 154,452 154,453 155,454 155,455 157,457 157,458 158,459 158,460 159,461 159,462 160,463 160,464 161,465 161,466 162,467 162,469 163,470 163,473 164,474 164,484 163,485 163,487 162,488 162,489 157,494 156,494 154,496 153,496 152,497 151,497 150,498 149,498 148,499 147,499 146,500 145,500 144,501 143,501 142,502 141,502 140,503 139,503 138,504 137,504 136,505 135,505 134,506 133,506 132,507 131,507 130,508 129,508 127,510 126,510 125,511 124,511 122,513 121,513 119,515 118,515 117,516 116,516 114,518 113,518 110,521 109,521 106,524 105,524 90,539 90,540 87,543 87,544 85,546 85,547 84,548 84,549 82,551 82,552 81,553 81,554 80,555 80,556 79,557 79,558 78,559 78,561 77,562 77,563 76,564 76,566 75,567 75,569 74,570 74,573 73,574 73,577 72,578 72,581 71,582 71,587 70,588 70,593 69,594 69,601 68,602 68,611 67,612 67,623 66,624 66,637 65,638 65,664 64,665 64,699 65,700 65,710 66,711 66,714 67,715 67,718 68,719 68,721 69,722 69,723 70,724 70,725 71,726 71,727 73,729 73,730 76,733 76,734 81,739 82,739 85,742 86,742 88,744 89,744 90,745 91,745 92,746 93,746 94,747 96,747 97,748 99,748 100,749 103,749 104,750 109,750 110,751 200,751 201,750 240,750 241,751 241,753 242,754 242,756 245,759 247,759 248,760 498,760 499,759 500,759 501,758 502,758 505,755 505,754 507,752 507,751 508,750 508,748 509,747 509,746 510,745 510,744 511,743 511,742 512,741 512,740 513,739 513,738 514,737 514,736 515,735 515,733 516,732 516,731 517,730 517,729 518,728 518,727 519,726 519,725 520,724 520,723 521,722 521,721 522,720 522,719 523,718 523,716 524,715 524,714 525,713 525,712 526,711 526,710 527,709 527,708 528,707 528,706 529,705 529,704 530,703 530,702 531,701 531,699 532,698 532,697 533,696 533,695 534,694 534,693 535,692 535,691 536,690 536,689 537,688 537,687 538,686 538,685 539,684 539,682 540,681 540,680 541,679 541,678 542,677 542,676 543,675 543,674 544,673 544,672 545,671 545,669 546,668 546,667 547,666 547,665 548,664 548,663 549,662 549,661 550,660 550,659 551,658 551,657 552,656 552,654 553,653 553,652 554,651 554,650 555,649 555,648 556,647 556,646 557,645 557,643 558,642 558,641 559,640 559,639 560,638 560,637 561,636 561,635 562,634 562,632 563,631 563,630 564,629 564,628 565,627 565,626 566,625 566,624 567,623 567,621 568,620 568,619 569,618 569,617 570,616 570,610 569,609 569,607 566,604 565,604 564,603 562,603 561,602 422,602 421,603 419,603 418,604 417,604 416,605 415,605 411,609 411,610 410,611 410,612 409,613 409,614 408,615 408,617 407,618 407,619 406,620 406,621 405,622 405,623 404,624 404,625 403,626 403,628 402,629 402,630 401,631 401,632 400,633 400,634 399,635 399,636 398,637 398,638 397,639 397,641 396,642 396,643 395,644 395,645 394,646 394,647 393,648 393,649 392,650 392,651 391,652 391,654 390,655 390,656 389,657 389,658 388,659 388,660 387,661 387,662 386,663 386,664 385,665 385,666 384,667 384,669 383,670 383,671 382,672 382,673 381,674 381,675 380,676 380,677 379,678 379,679 378,680 378,681 377,682 377,684 376,685 376,686 375,687 375,688 374,689 374,690 373,691 373,692 372,693 372,694 371,695 371,696 370,697 370,699 369,700 369,701 368,702 368,703 367,704 367,705 366,706 366,707 365,708 365,709 364,710 364,711 363,712 363,713 362,714 362,716 361,717 361,718 360,719 360,720 359,721 359,722 358,723 358,724 357,725 357,726 356,727 356,728 355,729 355,731 354,732 354,733 353,734 353,735 351,737 350,736 321,736 320,735 320,734 319,733 319,731 318,730 318,727 317,726 317,725 316,724 316,722 315,721 315,720 314,719 314,718 313,717 313,716 311,714 311,713 309,711 309,710 303,704 303,703 302,703 297,698 296,698 294,696 293,696 292,695 291,695 290,694 289,694 288,693 287,693 286,692 285,692 284,691 282,691 281,690 279,690 278,689 273,689 272,688 258,688 257,687 257,686 258,685 258,682 259,681 259,678 260,677 260,675 261,674 261,671 262,670 262,667 263,666 263,663 264,662 264,659 265,658 265,655 266,654 266,651 267,650 267,647 268,646 268,642 269,641 269,637 270,636 270,632 271,631 271,627 272,626 272,621 273,620 273,611 270,608 264,608 263,609 262,609 262,610 260,612 260,616 259,617 259,621 258,622 258,627 257,628 257,632 256,633 256,637 255,638 255,641 254,642 254,645 253,646 253,650 252,651 252,654 251,655 251,658 250,659 250,662 249,663 249,666 248,667 248,670 247,671 247,674 246,675 246,677 245,678 245,681 244,682 244,684 243,685 243,688 242,689 242,692 241,693 241,694 240,695 231,695 230,694 220,694 219,693 212,693 211,692 203,692 202,691 195,691 194,690 188,690 187,689 181,689 180,688 173,688 172,687 166,687 165,686 159,686 158,685 153,685 152,684 147,684 146,683 143,683 142,682 142,674 143,673 143,653 144,652 144,633 145,632 145,611 146,610 146,608 145,607 145,605 143,603 142,603 141,602 136,602 133,605 133,606 132,607 132,624 131,625 131,645 130,646 130,666 129,667 129,691 130,692 130,693 132,695 134,695 135,696 140,696 141,697 146,697 147,698 153,698 154,699 160,699 161,700 167,700 168,701 174,701 175,702 181,702 182,703 188,703 189,704 195,704 196,705 203,705 204,706 211,706 212,707 220,707 221,708 230,708 231,709 237,709 238,708 241,708 242,707 243,707 244,706 245,706 246,705 247,705 248,704 250,704 251,703 253,703 254,702 258,702 259,701 270,701 271,702 275,702 276,703 278,703 279,704 281,704 282,705 283,705 284,706 285,706 286,707 287,707 290,710 291,710 298,717 298,718 300,720 300,721 302,723 302,724 303,725 303,726 304,727 304,729 305,730 305,732 306,733 306,735 305,736 194,736 193,737 116,737 115,736 108,736 107,735 103,735 102,734 100,734 99,733 98,733 97,732 96,732 95,731 94,731 92,729 91,729 85,723 85,722 83,720 83,719 82,718 82,717 81,716 81,714 80,713 80,710 79,709 79,705 78,704 78,655 79,654 79,635 80,634 80,620 81,619 81,610 82,609 82,600 83,599 83,592 84,591 84,587 85,586 85,582 86,581 86,578 87,577 87,574 88,573 88,571 89,570 89,568 90,567 90,566 91,565 91,563 92,562 92,561 93,560 93,559 94,558 94,557 96,555 96,554 98,552 98,551 100,549 100,548 113,535 114,535 117,532 118,532 120,530 121,530 123,528 124,528 126,526 127,526 128,525 129,525 131,523 132,523 134,521 135,521 136,520 137,520 138,519 139,519 141,517 142,517 143,516 144,516 145,515 146,515 147,514 148,514 149,513 150,513 151,512 152,512 153,511 154,511 155,510 156,510 157,509 158,509 159,508 160,508 161,507 162,507 164,505 165,505 173,497 173,496 174,495 174,494 175,493 175,492 176,491 176,488 177,487 177,471 176,470 176,467 175,466 175,464 174,463 174,462 173,461 173,459 172,458 172,457 171,456 171,455 170,454 170,453 168,451 168,450 167,449 167,448 166,447 166,446 165,445 165,444 164,443 164,441 163,440 163,439 162,438 162,436 161,435 161,432 160,431 160,428 159,427 159,421 158,420 158,402 159,401 159,396 160,395 160,392 161,391 161,388 162,387 162,386 163,385 163,383 164,382 164,381 165,380 165,379 166,378 166,377 168,375 168,374 170,372 170,371 181,360 182,360 184,358 185,358 186,357 187,357 188,356 189,356 190,355 191,355 192,354 194,354 195,353 197,353 198,352 201,352 202,351 206,351 207,350 221,350 222,351 227,351 228,352 231,352 232,353 234,353 235,354 237,354 238,355 239,355 240,356 241,356 242,357 243,357 244,358 245,358 246,359 247,359 250,362 251,362 258,369 258,370 261,373 261,374 263,376 263,377 264,378 264,379 265,380 265,381 266,382 266,383 267,384 267,386 268,387 268,390 269,391 269,394 270,395 270,401 271,402 271,415 270,416 270,423 269,424 269,428 268,429 268,432 267,433 267,436 266,437 266,439 265,440 265,441 264,442 264,444 263,445 263,446 262,447 262,448 261,449 261,450 260,451 260,452 259,453 259,454 256,457 256,458 248,466 247,466 239,474 239,475 236,478 236,479 234,481 234,482 233,483 233,484 232,485 232,486 231,487 231,489 230,490 230,500 231,501 231,502 232,503 232,504 233,505 233,506 235,508 235,509 236,510 237,510 242,515 243,515 244,516 245,516 247,518 248,518 249,519 250,519 252,521 253,521 254,522 255,522 257,524 258,524 260,526 261,526 263,528 264,528 276,540 276,541 279,544 279,545 281,547 281,548 282,549 282,550 283,551 283,552 284,553 284,554 285,555 285,557 286,558 286,560 287,561 287,563 288,564 288,566 289,567 289,570 290,571 290,574 291,575 291,578 292,579 292,582 293,583 293,586 294,587 294,591 295,592 295,595 296,596 296,599 297,600 297,603 298,604 298,607 299,608 299,611 300,612 300,616 301,617 301,620 302,621 302,624 303,625 303,628 304,629 304,633 305,634 305,637 306,638 306,641 307,642 307,645 308,646 308,650 309,651 309,654 310,655 310,658 311,659 311,663 312,664 312,667 313,668 313,671 314,672 314,675 315,676 315,677 316,678 316,679 317,680 317,681 324,688 325,688 326,689 327,689 328,690 331,690 332,691 335,691 336,692 339,692 340,693 344,693 345,694 349,694 350,695 354,695 355,696 358,696 361,693 361,692 362,691 362,686 360,684 360,683 359,683 358,682 357,682 356,681 353,681 352,680 348,680 347,679 343,679 342,678 338,678 337,677 335,677 334,676 332,676 328,672 328,671 327,670 327,668 326,667 326,663 325,662 325,659 324,658 324,654 323,653 323,649 322,648 322,645 321,644 321,641 320,640 320,637 319,636 319,632 318,631 318,628 317,627 317,624 316,623 316,619 315,618 315,615 314,614 314,611 313,610 313,607 312,606 312,603 311,602 311,598 310,597 310,594 309,593 309,590 308,589 308,586 307,585 307,582 306,581 306,578 305,577 305,574 304,573 304,570 303,569 303,566 302,565 302,563 301,562 301,560 300,559 300,557 299,556 299,554 298,553 298,551 297,550 297,549 296,548 296,547 295,546 295,545 294,544 294,543 293,542 293,541 292,540 292,539 290,537 290,536 287,533 287,532 273,518 272,518 269,515 268,515 266,513 265,513 263,511 262,511 261,510 260,510 258,508 257,508 256,507 255,507 254,506 253,506 251,504 250,504 249,503 248,503 244,499 244,498 243,497 243,492 244,491 244,490 245,489 245,488 248,485 248,484 254,478 255,478 267,466 267,465 269,463 269,462 271,460 271,459 272,458 272,457 274,455 274,454 275,453 275,451 276,450 276,449 277,448 277,447 278,446 278,444 279,443 279,441 280,440 280,437 281,436 281,434 282,433 282,429 283,428 283,423 284,422 284,412 285,411 285,405 284,404 284,395 283,394 283,390 282,389 282,386 281,385 281,383 280,382 280,380 279,379 279,378 278,377 278,376 277,375 277,374 276,373 276,372 275,371 275,370 274,369 274,368 272,366 272,365 269,362 269,361 260,352 259,352 256,349 255,349 253,347 252,347 251,346 250,346 249,345 248,345 247,344 246,344 245,343 244,343 243,342 242,342 241,341 239,341 238,340 236,340 235,339 232,339 231,338 227,338 226,337" stroke="black" stroke-width="2" /><polyline fill="none" points="634,332 633,333 632,333 630,335 630,339 631,340 631,341 632,342 638,342 640,340 640,335 638,333 637,333 636,332" stroke="black" stroke-width="2" /><polyline fill="none" points="517,331 517,332" stroke="black" stroke-width="2" /><polyline fill="none" points="940,328 940,330" stroke="black" stroke-width="2" /><polyline fill="none" points="418,326 418,327" stroke="black" stroke-width="2" /><polyline fill="none" points="681,325 681,327" stroke="black" stroke-width="2" /><polyline fill="none" points="809,315 810,315" stroke="black" stroke-width="2" /><polyline fill="none" points="474,315 475,315" stroke="black" stroke-width="2" /><polyline fill="none" points="783,309 783,310" stroke="black" stroke-width="2" /><polyline fill="none" points="752,309 752,310" stroke="black" stroke-width="2" /><polyline fill="none" points="847,308 847,313" stroke="black" stroke-width="2" /><polyline fill="none" points="850,307 850,314 856,314 857,313 858,314 858,334 857,335 850,335 850,341 874,341 873,340 873,335 866,335 865,334 865,307" stroke="black" stroke-width="2" /><polyline fill="none" points="754,307 754,333 755,334 755,336 756,337 756,338 760,342 767,342 768,341 769,341 773,337 774,338 774,341 781,341 781,307 773,307 773,330 769,334 768,334 767,335 765,335 762,332 762,316 761,315 761,313 762,312 761,311 761,309 762,308 762,307" stroke="black" stroke-width="2" /><polyline fill="none" points="633,307 632,308 631,308 631,309 630,310 630,314 632,316 638,316 640,314 640,309 638,307" stroke="black" stroke-width="2" /><polyline fill="none" points="927,306 926,307 924,307 919,312 918,311 918,307 911,307 911,341 918,341 918,320 919,319 919,318 922,315 923,315 924,314 928,314 930,316 930,341 938,341 938,315 937,314 937,312 936,311 936,310 933,307 932,307 931,306" stroke="black" stroke-width="2" /><polyline fill="none" points="887,306 886,307 884,307 883,308 882,308 877,313 877,314 876,315 876,316 875,317 875,321 874,322 874,327 875,328 875,331 876,332 876,334 878,336 878,337 880,339 881,339 883,341 884,341 885,342 894,342 895,341 896,341 897,340 898,340 903,335 903,334 904,333 904,331 905,330 905,318 904,317 904,315 902,313 902,312 898,308 897,308 896,307 894,307 893,306" stroke="black" stroke-width="2" /><polyline fill="none" points="800,306 799,307 797,307 796,308 795,308 790,313 790,314 789,315 789,316 788,317 788,319 787,320 787,328 788,329 788,331 789,332 789,333 790,334 790,335 795,340 796,340 797,341 799,341 800,342 811,342 812,341 814,341 814,334 812,334 811,335 809,335 808,336 803,336 802,335 801,335 800,334 799,334 797,332 797,331 796,330 796,329 795,328 795,320 796,319 796,318 801,313 804,313 805,312 809,312 810,313 812,313 813,314 813,311 814,310 814,307 812,307 811,306" stroke="black" stroke-width="2" /><polyline fill="none" points="696,306 695,307 693,307 692,308 691,308 686,313 686,314 685,315 685,316 684,317 684,320 683,321 683,327 684,328 684,331 685,332 685,333 686,334 686,335 691,340 692,340 693,341 694,341 695,342 706,342 707,341 710,341 711,340 711,334 710,334 709,335 706,335 705,336 698,336 697,335 696,335 692,331 692,329 691,328 691,327 692,326 713,326 713,321 712,320 712,316 711,315 711,313 709,311 709,310 707,308 706,308 705,307 703,307 702,306" stroke="black" stroke-width="2" /><polyline fill="none" points="666,306 666,307" stroke="black" stroke-width="2" /><polyline fill="none" points="604,306 603,307 601,307 599,309 598,309 595,312 595,313 594,314 594,315 593,316 593,317 592,318 592,330 593,331 593,332 594,333 594,334 595,335 595,336 598,339 599,339 601,341 603,341 604,342 615,342 616,341 619,341 619,334 618,334 617,335 615,335 614,336 606,336 605,335 604,335 601,332 601,331 600,330 600,327 601,326 621,326 621,318 620,317 620,314 619,313 619,312 614,307 612,307 611,306" stroke="black" stroke-width="2" /><polyline fill="none" points="566,306 565,307 563,307 562,308 561,308 557,312 557,313 556,314 556,322 557,323 557,324 558,325 558,326 559,327 560,327 561,328 556,333 556,336 557,337 557,338 558,339 559,339 560,340 560,341 559,342 558,342 558,343 556,345 556,349 557,350 557,351 560,354 561,354 562,355 563,355 564,356 577,356 578,355 580,355 581,354 582,354 584,352 585,352 585,351 587,349 587,348 588,347 588,341 586,339 586,338 585,338 584,337 583,337 582,336 580,336 579,335 565,335 564,334 564,331 565,330 566,330 567,331 571,331 572,330 576,330 577,329 578,329 579,328 580,328 583,325 583,324 584,323 584,321 585,320 585,318 584,317 584,315 583,314 584,313 588,313 588,310 589,309 589,307 575,307 574,306" stroke="black" stroke-width="2" /><polyline fill="none" points="530,306 529,307 526,307 525,308 523,308 522,309 522,311 523,312 523,315 524,315 525,314 528,314 529,313 538,313 541,316 541,318 540,319 536,319 535,320 532,320 531,321 529,321 528,322 526,322 525,323 524,323 521,326 521,327 520,328 520,336 521,337 521,338 523,340 524,340 525,341 526,341 527,342 534,342 535,341 536,341 538,339 539,339 541,337 542,338 542,339 541,340 541,341 548,341 548,314 547,313 547,312 543,308 542,308 541,307 539,307 538,306" stroke="black" stroke-width="2" /><polyline fill="none" points="499,306 498,307 495,307 493,309 492,309 490,311 490,312 489,313 489,315 488,316 488,318 489,319 489,321 492,324 493,324 494,325 495,325 496,326 497,326 498,327 500,327 501,328 502,328 503,329 504,329 506,331 506,333 504,335 503,335 502,336 495,336 494,335 491,335 490,334 489,334 489,340 490,341 492,341 493,342 504,342 505,341 507,341 508,340 509,340 511,338 512,338 512,337 514,335 514,327 513,326 513,325 512,324 511,324 509,322 508,322 507,321 505,321 504,320 502,320 501,319 499,319 497,317 497,315 499,313 501,313 502,312 504,312 505,313 509,313 510,314 511,314 512,315 512,307 509,307 508,306" stroke="black" stroke-width="2" /><polyline fill="none" points="466,306 465,307 463,307 462,308 461,308 457,312 457,313 456,314 456,320 457,321 457,322 459,324 460,324 461,325 462,325 463,326 465,326 466,327 468,327 469,328 470,328 471,329 472,329 474,331 474,333 472,335 471,335 470,336 463,336 462,335 459,335 458,334 457,334 457,340 458,341 460,341 461,342 472,342 473,341 475,341 476,340 477,340 481,336 481,335 482,334 482,327 478,323 477,323 475,321 473,321 472,320 470,320 469,319 467,319 464,316 464,315 466,313 468,313 469,312 472,312 473,313 477,313 478,314 479,314 480,315 480,313 479,312 479,310 480,309 480,308 479,307 477,307 476,306" stroke="black" stroke-width="2" /><polyline fill="none" points="433,306 432,307 430,307 429,308 428,308 423,313 423,314 422,315 422,316 421,317 421,319 420,320 420,328 421,329 421,331 422,332 422,334 428,340 429,340 430,341 431,341 432,342 443,342 444,341 447,341 448,340 448,339 447,338 447,334 446,334 445,335 443,335 442,336 434,336 432,334 431,334 430,333 430,332 429,331 429,330 428,329 428,327 429,326 450,326 450,324 449,323 449,316 448,315 448,314 447,313 447,312 445,310 445,309 444,309 442,307 440,307 439,306" stroke="black" stroke-width="2" /><polyline fill="none" points="389,306 388,307 387,307 384,310 384,311 383,312 382,311 382,309 383,308 382,307 375,307 376,308 376,341 383,341 383,317 387,313 389,313 391,315 391,341 398,341 398,318 399,317 399,316 402,313 404,313 407,316 407,341 414,341 414,313 413,312 413,310 410,307 409,307 408,306 405,306 404,307 403,307 402,308 401,308 399,310 399,311 398,312 397,311 397,309 395,307 394,307 393,306" stroke="black" stroke-width="2" /><polyline fill="none" points="891,304 892,304" stroke="black" stroke-width="2" /><polyline fill="none" points="831,297 830,298 827,298 827,306 826,307 818,307 818,314 824,314 825,313 827,315 827,336 828,337 828,338 831,341 832,341 833,342 843,342 844,341 845,341 845,335 844,335 843,336 838,336 835,333 835,332 834,331 834,314 835,313 836,313 837,314 844,314 845,313 845,307 835,307 834,306 834,297" stroke="black" stroke-width="2" /><polyline fill="none" points="667,293 667,294 668,295 668,308 669,309 669,311 674,311 675,310 675,297 676,296 676,293" stroke="black" stroke-width="2" /><polyline fill="none" points="858,291 856,293 856,295 855,296 856,297 856,299 858,301 859,301 860,302 862,302 863,301 864,301 866,299 866,298 867,297 867,295 866,294 866,293 864,291" stroke="black" stroke-width="2" /><polyline fill="none" points="740,291 740,306 739,307 736,307 735,306 732,306 731,307 728,307 727,308 726,308 721,313 721,314 720,315 720,316 719,317 719,323 718,324 718,325 719,326 719,332 720,333 720,335 722,337 722,338 725,341 726,341 727,342 734,342 735,341 736,341 739,338 740,339 740,341 747,341 747,291" stroke="black" stroke-width="2" /><polyline fill="none" points="163,267 163,269" stroke="black" stroke-width="2" /><polyline fill="none" points="693,250 694,250" stroke="black" stroke-width="2" /><polyline fill="none" points="677,250 681,250" stroke="black" stroke-width="2" /><polyline fill="none" points="648,250 649,250" stroke="black" stroke-width="2" /><polyline fill="none" points="567,250 568,250" stroke="black" stroke-width="2" /><polyline fill="none" points="491,250 495,250" stroke="black" stroke-width="2" /><polyline fill="none" points="411,250 413,250" stroke="black" stroke-width="2" /><polyline fill="none" points="586,237 585,238 584,238 582,240 582,241 581,242 581,244 582,245 582,246 584,248 585,248 586,249 588,249 589,248 590,248 593,245 593,241 590,238 589,238 588,237" stroke="black" stroke-width="2" /><polyline fill="none" points="683,232 683,233" stroke="black" stroke-width="2" /><polyline fill="none" points="681,225 681,226" stroke="black" stroke-width="2" /><polyline fill="none" points="586,211 585,212 584,212 582,214 582,215 581,216 581,218 582,219 582,220 584,222 590,222 592,220 592,219 593,218 593,215 590,212 589,212 588,211" stroke="black" stroke-width="2" /><polyline fill="none" points="518,210 517,211 515,211 514,212 513,212 512,213 511,213 507,217 507,218 506,219 506,220 505,221 505,222 504,223 504,235 505,236 505,238 506,239 506,240 508,242 508,243 509,244 510,244 512,246 513,246 514,247 515,247 516,248 521,248 522,249 523,249 524,248 531,248 532,247 534,247 534,240 532,240 531,241 528,241 527,242 520,242 519,241 518,241 517,240 516,240 514,238 514,237 513,236 513,232 514,231 515,232 536,232 536,225 535,224 535,220 534,219 534,218 533,217 533,216 529,212 528,212 527,211 526,211 525,210" stroke="black" stroke-width="2" /><polyline fill="none" points="439,210 438,211 436,211 435,212 434,212 433,213 432,213 428,217 428,218 427,219 427,220 426,221 426,222 425,223 425,235 426,236 426,238 427,239 427,240 429,242 429,243 431,245 432,245 434,247 435,247 436,248 440,248 441,249 443,249 444,248 447,248 448,247 449,247 450,246 451,246 455,242 455,241 456,240 456,239 457,238 457,237 458,236 458,231 459,230 459,229 458,228 458,223 457,222 457,220 456,219 456,218 450,212 449,212 448,211 446,211 445,210" stroke="black" stroke-width="2" /><polyline fill="none" points="391,210 390,211 389,211 388,212 387,212 385,214 385,215 384,216 383,215 383,211 376,211 376,248 384,248 384,222 385,221 385,220 387,218 391,218 392,219 392,220 393,221 393,248 400,248 400,223 401,222 401,221 404,218 408,218 409,219 409,220 410,221 410,248 417,248 417,217 416,216 416,214 413,211 411,211 410,210 408,210 407,211 405,211 400,216 399,215 399,214 398,213 398,212 397,212 396,211 395,211 394,210" stroke="black" stroke-width="2" /><polyline fill="none" points="692,198 692,205 701,205 702,206 701,207 701,239 702,240 701,241 692,241 692,248 719,248 719,241 711,241 710,240 710,206 711,205 719,205 719,198" stroke="black" stroke-width="2" /><polyline fill="none" points="660,198 660,201 659,202 659,205 658,206 658,209 657,210 657,213 656,214 656,217 655,218 655,221 654,222 654,224 653,225 653,228 652,229 652,232 651,233 651,235 650,236 650,239 649,240 649,242 648,243 648,245 647,246 647,248 656,248 656,245 657,244 657,240 658,239 658,236 660,234 672,234 673,235 673,237 674,238 674,240 675,241 675,244 676,245 676,248 685,248 685,246 684,245 684,242 683,241 683,239 682,238 682,236 681,235 681,232 680,231 680,229 679,228 679,225 678,224 678,222 677,221 677,218 676,217 676,214 675,213 675,211 674,210 674,207 673,206 673,203 672,202 672,198" stroke="black" stroke-width="2" /><polyline fill="none" points="733,197 733,210 734,211 734,215 740,215 740,209 741,208 741,197" stroke="black" stroke-width="2" /><polyline fill="none" points="627,197 627,200 628,201 628,213 629,214 629,215 635,215 635,205 636,204 636,197" stroke="black" stroke-width="2" /><polyline fill="none" points="543,196 543,203 552,203 553,204 552,205 552,239 553,240 552,241 543,241 543,248 570,248 570,241 561,241 560,240 560,197 559,196" stroke="black" stroke-width="2" /><polyline fill="none" points="488,196 488,210 487,211 483,211 482,210 480,210 479,211 475,211 474,212 473,212 467,218 467,219 466,220 466,222 465,223 465,237 466,238 466,240 467,241 467,242 472,247 473,247 474,248 476,248 477,249 478,249 479,248 482,248 483,247 484,247 488,243 489,244 489,248 496,248 496,196" stroke="black" stroke-width="2" /><polyline fill="none" points="281,173 280,174 279,174 276,177 276,182 277,183 277,184 278,185 279,185 280,186 303,186 304,185 305,185 307,183 307,182 308,181 308,178 307,177 307,176 305,174 304,174 303,173" stroke="black" stroke-width="2" /><polyline fill="none" points="87,173 86,174 85,174 82,177 82,183 84,185 85,185 86,186 115,186 116,185 117,185 118,184 118,183 119,182 119,178 118,177 118,176 116,174 115,174 114,173" stroke="black" stroke-width="2" /><polyline fill="none" points="191,134 190,135 184,135 183,136 180,136 179,137 177,137 176,138 174,138 173,139 172,139 171,140 169,140 168,141 167,141 165,143 164,143 163,144 162,144 159,147 158,147 148,157 148,158 146,160 146,161 144,163 144,164 143,165 143,166 142,167 142,168 141,169 141,171 140,172 140,174 139,175 139,177 138,178 138,182 137,183 137,200 138,201 138,205 139,206 139,209 140,210 140,212 141,213 141,214 142,215 142,217 143,218 143,219 144,220 144,221 145,222 145,223 146,224 146,225 148,227 148,228 151,231 151,232 154,235 154,236 156,238 156,239 158,241 158,242 159,243 159,244 160,245 160,246 161,247 161,248 162,249 162,251 163,252 163,254 164,255 164,259 165,260 165,273 166,274 166,285 167,286 167,288 169,290 169,291 175,297 175,301 176,302 176,304 177,305 177,306 178,307 178,308 184,314 185,314 187,316 189,316 190,317 192,317 193,318 201,318 202,317 205,317 206,316 207,316 208,315 209,315 210,314 211,314 217,308 217,307 218,306 218,305 219,304 219,302 220,301 220,298 227,291 227,290 228,289 228,288 229,287 229,284 230,283 230,262 231,261 231,256 232,255 232,253 233,252 233,250 234,249 234,248 235,247 235,246 236,245 236,244 237,243 237,242 238,241 238,240 240,238 240,237 243,234 243,233 246,230 246,229 248,227 248,226 249,225 249,224 251,222 251,221 252,220 252,219 253,218 253,217 254,216 254,214 255,213 255,211 256,210 256,208 257,207 257,203 258,202 258,196 259,195 259,189 258,188 258,181 257,180 257,177 256,176 256,174 255,173 255,171 254,170 254,169 253,168 253,167 252,166 252,165 251,164 251,163 249,161 249,160 247,158 247,157 236,146 235,146 233,144 232,144 230,142 229,142 228,141 227,141 226,140 225,140 224,139 222,139 221,138 220,138 219,137 216,137 215,136 212,136 211,135 206,135 205,134" stroke="black" stroke-width="2" /><polyline fill="none" points="338,119 337,120 334,120 333,121 332,121 331,122 329,122 327,124 326,124 325,125 324,125 316,133 316,134 314,136 314,137 313,138 313,139 312,140 312,142 311,143 311,145 310,146 310,168 311,169 312,169 314,171 314,172 315,173 315,174 316,175 316,177 317,178 317,181 316,182 316,184 315,185 315,186 310,191 310,506 311,507 311,509 312,510 312,512 313,513 313,514 314,515 314,516 315,517 315,518 318,521 318,522 321,525 322,525 325,528 326,528 328,530 329,530 330,531 332,531 333,532 335,532 336,533 345,533 346,534 528,534 529,533 538,533 539,532 539,531 540,530 540,527 539,526 539,523 535,519 531,519 530,518 528,518 527,519 526,518 503,518 502,519 501,518 499,518 498,519 497,518 496,519 495,518 494,519 493,518 489,518 488,519 484,519 483,518 482,519 481,518 480,519 479,518 478,519 477,518 449,518 448,519 447,518 440,518 439,519 434,519 433,518 432,519 430,519 429,518 427,518 426,519 420,519 419,518 418,519 417,518 416,519 415,518 414,519 413,518 408,518 407,519 406,518 400,518 399,519 394,519 393,518 392,519 391,518 376,518 375,519 374,519 373,518 372,519 371,518 370,518 369,519 364,519 363,518 362,519 361,518 360,519 354,519 353,518 352,519 351,518 350,519 349,518 348,519 343,519 342,518 338,518 337,517 336,517 335,516 334,516 327,509 327,508 326,507 326,506 325,505 325,501 324,500 324,151 325,150 325,148 326,147 326,145 328,143 328,142 332,138 333,138 335,136 337,136 338,135 340,135 341,134 898,134 899,135 901,135 902,136 904,136 907,139 908,139 910,141 910,142 912,144 912,145 913,146 913,148 914,149 914,293 915,294 915,296 916,296 917,297 927,297 928,296 929,296 929,147 928,146 928,143 927,142 927,141 926,140 926,139 925,138 925,137 924,136 924,135 922,133 922,132 916,126 915,126 913,124 912,124 910,122 909,122 908,121 906,121 905,120 902,120 901,119" stroke="black" stroke-width="2" /><polyline fill="none" points="269,103 256,116 256,117 250,123 250,124 249,125 249,128 250,129 250,130 253,133 258,133 259,132 260,132 266,126 266,125 278,113 278,112 279,111 279,108 278,107 278,106 275,103" stroke="black" stroke-width="2" /><polyline fill="none" points="120,102 119,103 118,103 115,106 115,111 116,112 116,113 124,121 124,122 135,133 141,133 144,130 144,124 143,123 143,122 133,112 133,111 125,103 124,103 123,102" stroke="black" stroke-width="2" /><polyline fill="none" points="195,79 194,80 193,80 192,81 192,82 191,83 191,110 192,111 192,112 194,114 195,114 196,115 198,115 199,114 201,114 203,112 203,110 204,109 204,83 203,82 203,81 202,80 201,80 200,79" stroke="black" stroke-width="2" /></svg>